<mxfile host="app.diagrams.net" modified="2020-12-14T07:09:06.935Z" agent="5.0 (Windows NT 10.0; Win64; x64) AppleWebKit/537.36 (KHTML, like Gecko) Chrome/87.0.4280.88 Safari/537.36 Edg/87.0.664.60" etag="dA-AYSg4-4eyrkjWqdOG" version="14.0.1" type="github" pages="2">
  <diagram name="流程图" id="74e2e168-ea6b-b213-b513-2b3c1d86103e">
    <mxGraphModel dx="1058" dy="762" grid="1" gridSize="10" guides="1" tooltips="1" connect="1" arrows="1" fold="1" page="1" pageScale="1" pageWidth="1100" pageHeight="850" background="#ffffff" math="0" shadow="0">
      <root>
        <mxCell id="0" />
        <mxCell id="1" parent="0" />
        <mxCell id="uLat98R6qpUOMgYXG1jS-1" value="SqlSessionFactory" style="rounded=0;whiteSpace=wrap;html=1;" parent="1" vertex="1">
          <mxGeometry x="220" y="70" width="120" height="60" as="geometry" />
        </mxCell>
        <mxCell id="uLat98R6qpUOMgYXG1jS-2" value="SqlSession" style="rounded=0;whiteSpace=wrap;html=1;" parent="1" vertex="1">
          <mxGeometry x="410" y="70" width="120" height="60" as="geometry" />
        </mxCell>
      </root>
    </mxGraphModel>
  </diagram>
  <diagram id="Hm-bF_i7KY-_KWz6gchx" name="Page-2">
    <mxGraphModel dx="1058" dy="762" grid="1" gridSize="10" guides="1" tooltips="1" connect="1" arrows="1" fold="1" page="1" pageScale="1" pageWidth="827" pageHeight="1169" math="0" shadow="0">
      <root>
        <mxCell id="2RSqPIs09iXyiuye2jlH-0" />
        <mxCell id="2RSqPIs09iXyiuye2jlH-1" parent="2RSqPIs09iXyiuye2jlH-0" />
      </root>
    </mxGraphModel>
  </diagram>
</mxfile>
